<?xml version="1.0" encoding="utf-8"?>
<!-- Generator: Adobe Illustrator 24.3.0, SVG Export Plug-In . SVG Version: 6.00 Build 0)  -->
<svg version="1.0" id="Layer_1" xmlns="http://www.w3.org/2000/svg" xmlns:xlink="http://www.w3.org/1999/xlink" x="0px" y="0px"
	 viewBox="0 0 111.68 144.49" style="enable-background:new 0 0 111.68 144.49;" xml:space="preserve">
<style type="text/css">
	.st0{fill-rule:evenodd;clip-rule:evenodd;}
</style>
<g>
	<path class="st0" d="M55.84,112.3c-6.42,5.16-11.77,8.6-15.88-1.34c6.35-1.19,12.13-3.55,15.88-6.41
		c3.75,2.86,9.53,5.22,15.88,6.41C67.61,120.9,62.26,117.46,55.84,112.3L55.84,112.3z M55.86,45.6
		c-11.46-0.12-22.35-1.55-34.01-3.41l2.87,2.07c-2.52-1.08-5.78-2.84-9.67-3.96c-18.64-5.35-20.04,13.99-3.79,16.07
		c15.12,1.94,30.16-3.24,44.58-3.24c14.42,0,29.45,5.18,44.58,3.24c16.25-2.08,14.85-21.42-3.79-16.07
		c-3.89,1.12-7.15,2.88-9.67,3.96l2.87-2.07C78.99,43.92,66.44,45.61,55.86,45.6z M55.84,2.95c-9.94,0-22.6-5.96-27.52-0.94
		c-5.69,5.81-6.19,23.72-6.37,33.98c22.49,4.15,45.27,4.15,67.76,0c-0.17-10.25-0.68-28.17-6.37-33.98
		C78.44-3.01,65.78,2.95,55.84,2.95z M91.55,70.01c1.85,0.24,1.54,0.15,1.08,3.71c-0.1,0.81-0.94,0.62-1.35,0.57
		c-1.32,6.97-6.73,14.48-14.54,13.16c-6.96-1.18-16.54-10.22-17.1-17.95c-2.59-1.91-5.03-1.92-7.62-0.02
		c-0.54,7.74-10.14,16.79-17.1,17.97c-7.81,1.32-13.22-6.19-14.54-13.16c-1.58,0.2-1.3-0.13-1.71-3.35
		c-0.11-0.88,0.89-0.86,1.44-0.93c0.09-1.15,0.33-2.22,0.73-3.15c3.36-7.78,22.97-8.77,28.93-3.57h12.1
		c5.96-5.2,25.57-4.21,28.93,3.57C91.22,67.79,91.46,68.86,91.55,70.01z M60.55,64.98c-0.45,0.83-0.72,1.7-0.84,2.61
		c-2.58-1.61-5.16-1.62-7.74-0.01c-0.13-0.9-0.4-1.77-0.84-2.6H60.55z M7.95,101.08c3.58,5.65,9.37,8.74,15.82,10.01
		c-0.08,8.32,0.4,11.08,3.57,17.96c0.18-1.58-0.03-3.16,0.15-4.74c3.29,6.99,7.35,5.79,10.26,12.76c-0.1-1.56,0.38-3.13,0.28-4.7
		c2.7,6.08,8.23,5.6,10.23,9.77c-0.32-1.36-0.28-2.65-1.15-3.9c4.18,1.13,7.05,2.4,8.74,6.24c1.69-3.84,4.55-5.11,8.74-6.24
		c-0.87,1.25-0.83,2.54-1.15,3.9c1.99-4.17,7.52-3.69,10.22-9.77c-0.1,1.57,0.38,3.13,0.28,4.7c2.91-6.98,6.97-5.77,10.26-12.76
		c0.18,1.58-0.04,3.16,0.15,4.74c3.16-6.88,3.65-9.64,3.57-17.96c6.45-1.27,12.24-4.36,15.82-10.01
		c-19.38,10.34-28.12-10.05-47.89-6.6C36.07,91.03,27.33,111.42,7.95,101.08z"/>
</g>
</svg>
