<?xml version="1.0" encoding="utf-8"?>
<!-- Generator: Adobe Illustrator 28.0.0, SVG Export Plug-In . SVG Version: 6.00 Build 0)  -->
<svg version="1.0" id="katman_1" xmlns="http://www.w3.org/2000/svg" xmlns:xlink="http://www.w3.org/1999/xlink" x="0px" y="0px"
	 viewBox="0 0 746.69 832.28" style="enable-background:new 0 0 746.69 832.28;" xml:space="preserve">
<style type="text/css">
	.st0{fill:#75B27D;}
	.st1{fill:#1D1D1B;}
	.st2{fill:#EA0C0C;}
</style>
<path class="st0" d="M560.6,580.11c6.28-2.83,13.66-4.91,19.81-7.29c11.69-4.53,22.16-7.79,31.4-9.77
	c23.86-5.11,46.88-2.91,69.06,6.59c0.53,0.23,0.57,0.51,0.1,0.86c-2.47,1.83-4.99,3.7-7.56,5.6
	c-24.59,18.22-49.85,21.83-79.09,15.12c-8.15-1.87-16.1-3.96-24.54-3.7c-2.77,0.08-6.88,0.72-12.33,1.93
	c-6.21,1.37-12.48,2.64-18.79,3.83c-0.59,0.11-0.72-0.08-0.37-0.57c3.64-5.1,7.64-10.08,12-14.93c6.48-7.2,12.9-15.01,19.25-21.75
	c20.34-21.57,40.8-43.03,61.38-64.37c3.15-3.27,6.3-7.83,9.07-12.46c7.79-13.03,15.95-23.83,27.44-32.94
	c19.58-15.54,44.91-24.34,68.55-31.39c1.01-0.3,1.23-0.01,0.66,0.88c-1,1.55-2.25,3.1-3.11,4.77
	c-9.81,19.16-19.51,37.96-35.61,52.16c-15.3,13.49-36.18,21.34-57.22,25.22c-0.8,0.15-1.66,0.72-2.57,1.72
	c-25.19,27.65-51.25,54.16-78.18,79.53C558.24,580.76,558.46,581.08,560.6,580.11z"/>
<path class="st0" d="M612.99,487.46c-9.34,15.81-24.52,29.06-38.34,40.94c-0.28,0.24-0.71,0.05-0.73-0.32
	c-0.6-14.76-0.83-28.49,2.01-43.76c5.57-29.98,29.26-48.76,52.27-66.71c0.43-0.34,1.06,0.01,1,0.56
	c-1.17,11.33-1.84,24.08-3.77,34.1C623.04,464.68,619.3,476.79,612.99,487.46z"/>
<path class="st0" d="M550.46,496.97c1.13,9.41,1.58,18.78,1.37,28.11c-0.42,18.73-5.34,34.35-16.76,49.02
	c-2.37,3.03-4.75,6.09-7.14,9.18c-0.13,0.16-0.39,0.11-0.44-0.09c-1.65-6.05-3.85-12.71-4.81-18.27
	c-4.49-26.25,7.97-49.66,25.79-67.96c0.37-0.39,0.77-0.6,1.19-0.64C550.14,496.28,550.41,496.5,550.46,496.97z"/>
<path class="st0" d="M712.94,501.04c11.35,0.63,22.49,2.28,33.42,4.96c0.36,0.09,0.45,0.56,0.14,0.77
	c-1.03,0.71-1.94,1.38-2.73,2.03c-28.22,22.91-59.7,36.79-96.71,35.97c-10.09-0.22-20.13-0.63-30.1-1.24
	c-0.38-0.02-0.57-0.47-0.32-0.76C641.52,514.48,674.88,498.93,712.94,501.04z"/>
<path class="st0" d="M186.09,580.11c-6.28-2.83-13.66-4.91-19.81-7.29c-11.69-4.53-22.16-7.79-31.4-9.77
	c-23.86-5.11-46.88-2.91-69.06,6.59c-0.53,0.23-0.57,0.51-0.1,0.86c2.47,1.83,4.99,3.7,7.56,5.6
	c24.59,18.22,49.85,21.83,79.09,15.12c8.15-1.87,16.1-3.96,24.54-3.7c2.77,0.08,6.88,0.72,12.33,1.93
	c6.21,1.37,12.48,2.64,18.79,3.83c0.59,0.11,0.72-0.08,0.37-0.57c-3.64-5.1-7.64-10.08-12-14.93c-6.48-7.2-12.9-15.01-19.25-21.75
	c-20.34-21.57-40.8-43.03-61.38-64.37c-3.15-3.27-6.3-7.83-9.07-12.46c-7.79-13.03-15.95-23.83-27.44-32.94
	c-19.58-15.54-44.91-24.34-68.55-31.39c-1.01-0.3-1.23-0.01-0.66,0.88c1,1.55,2.25,3.1,3.11,4.77
	c9.81,19.16,19.51,37.96,35.61,52.16c15.3,13.49,36.18,21.34,57.22,25.22c0.8,0.15,1.66,0.72,2.57,1.72
	c25.19,27.65,51.25,54.16,78.18,79.53C188.45,580.76,188.23,581.08,186.09,580.11z"/>
<path class="st0" d="M133.7,487.46c9.34,15.81,24.52,29.06,38.34,40.94c0.28,0.24,0.71,0.05,0.73-0.32
	c0.6-14.76,0.83-28.49-2.01-43.76c-5.57-29.98-29.26-48.76-52.27-66.71c-0.43-0.34-1.06,0.01-1,0.56
	c1.17,11.33,1.84,24.08,3.77,34.1C123.65,464.68,127.39,476.79,133.7,487.46z"/>
<path class="st0" d="M196.23,496.97c-1.13,9.41-1.58,18.78-1.37,28.11c0.42,18.73,5.34,34.35,16.76,49.02
	c2.37,3.03,4.75,6.09,7.14,9.18c0.13,0.16,0.39,0.11,0.44-0.09c1.65-6.05,3.85-12.71,4.81-18.27c4.49-26.25-7.97-49.66-25.79-67.96
	c-0.37-0.39-0.77-0.6-1.19-0.64C196.55,496.28,196.28,496.5,196.23,496.97z"/>
<path class="st0" d="M33.75,501.04c-11.35,0.63-22.49,2.28-33.42,4.96c-0.36,0.09-0.45,0.56-0.14,0.77
	c1.03,0.71,1.94,1.38,2.73,2.03c28.22,22.91,59.7,36.79,96.71,35.97c10.09-0.22,20.13-0.63,30.1-1.24c0.38-0.02,0.57-0.47,0.32-0.76
	C105.17,514.48,71.81,498.93,33.75,501.04z"/>
<g>
	<path class="st1" d="M502.47,606.17c2.58-3.24,5.38-7.74,8.71-10.18c0.31-0.23,0.3-0.69-0.02-0.91
		c-15.7-10.86-26.28-21.5-32.86-39.84c-10.19-28.37-10.22-59.2-6.11-88.82c0.07-0.49,0.43-0.9,0.92-1.01
		c41.45-9.98,79.03-35.84,95.25-76.58c11.52-28.93,8.69-55.44-8.48-79.53c-4.92-6.89-13.3-15.61-19.62-23.68
		c-13.79-17.6-19.71-37.23-25.48-58.41c-0.03-0.09,0.01-0.16,0.1-0.19h0.01c0.09-0.03,0.16-0.01,0.2,0.08
		c5.31,12.22,12.64,22.78,21.34,32.84c7.15,8.28,17.67,17.71,26.37,26.68c0.11,0.11,0.22,0.11,0.33,0.02v-0.01
		c0.11-0.09,0.13-0.2,0.04-0.32c-6.38-8.78-12.69-17.62-18.92-26.51c-12.49-17.81-22.46-37.17-28.51-58.11
		c-0.23-0.79-0.13-0.83,0.29-0.13c11.1,18.54,25.78,34.49,40.72,49.94c15.09,15.6,27.46,31.78,34.04,52.81
		c4.76,15.24,5.42,35.32-1.69,50.55c-0.51,1.08-0.32,1.22,0.57,0.42c0.36-0.33,0.83-0.99,1.4-2c14.47-25.57,18.58-56.24,17.31-85.21
		c-0.9-20.39-3.14-38.55-6.71-54.48c-8.99-40.13-31.86-70.72-71.2-85.24c-0.26-0.09-0.47-0.03-0.63,0.2
		c-14.51,20.66-36,28.42-60.78,27.5c-1.72-0.07-3.4-0.35-5.04-0.84c-0.39-0.11-0.6-0.02-0.63,0.29c-0.02,0.2,0.06,0.4,0.22,0.52
		c17.53,13.87,28.51,31.81,32.96,53.8c1.85,9.11,3.23,16.25,4.16,21.41c3.13,17.4,7.66,32.14,17.41,46.34
		c0.19,0.28,0.27,0.62,0.21,0.95c-2.13,12.17-4.61,24.27-7.43,36.31c-0.92,3.93-2.06,7.55-3.43,10.87c-0.67,1.63-0.4,1.81,0.83,0.55
		c5.71-5.87,14.7-7.27,22.06-3.71c18.94,9.18,12.43,36.11-7.33,37.72c-8.59,0.7-14.6-2.62-20.7-8.23c-0.36-0.33-0.94-0.13-1.03,0.35
		c-4.3,21.94-8.42,42.11-19.34,62.6c-16.73,31.37-52.73,58.09-87.17,66.38c-44.95,10.82-89.19-14.19-114.4-51.16
		c-11.35-16.64-16.98-34.57-20.85-54.65c-4.55-23.55-10.36-51.27-17.43-83.15c-0.08-0.38,0.04-0.68,0.36-0.9l11.55-7.72
		c0.34-0.22,0.78-0.22,1.11,0.02c3.75,2.65,7.61,5.16,11.58,7.53c19.71,11.76,39.59,9.59,57.6-3.77c1.87-1.39,3.73-2.7,5.56-3.93
		c0.48-0.32,1.08-0.42,1.64-0.26c2.82,0.81,5.48,2.14,7.99,4c1.2,0.89,1.57,2.21,1.1,3.95c-2.13,8.02-3.85,16.85-5.17,26.49
		c-1.98,14.51-1.25,28.55,9.26,39.84c0.17,0.17,0.45,0.15,0.58-0.05c1.69-2.45,6.42-8.39,10.01-6.95c3.45,1.39,7.18,2.13,11.19,2.22
		c0.39,0.01,0.72-0.32,0.7-0.71c-0.23-5.61-3.68-10.67-9.21-11.95c-2.51-0.59-4.74-0.11-6.7,1.42c-1.37,1.07-1.74,0.8-1.11-0.83
		c3.64-9.46,7.29-19.58,8.97-29.23c4.2-24.16,1.24-47.59-8.87-70.3c-1.81-4.07-3.75-7.44-5.81-10.11
		c-6.14-7.91-17.8-10.96-27.34-10.55c-1.03,0.05-1.24-0.34-0.64-1.17c7.08-9.79,14.05-19.47,20.92-29.05
		c11.29-15.74,21.72-29.21,34.75-40.24c21.47-18.19,52.79-18.69,76.69-4.65c0.26,0.16,0.6,0.04,0.71-0.24
		c6.4-16.46,1.04-34-9.5-47.32c-24.21-30.6-70.05-37.49-101.56-14.8c-12.83,9.23-23.66,23.28-29.66,37.85
		c-0.99,2.41-1.27,2.33-0.83-0.24c3.87-22.53,11.71-43.63,30.83-57.67c2.09-1.53,4.17-3.07,6.26-4.61c0.05-0.04,0.06-0.09,0.04-0.14
		c-0.04-0.09-0.09-0.16-0.16-0.21s-0.18-0.04-0.32,0.01c-10.89,3.95-19.86,8.98-26.92,15.09c-23.53,20.35-32.56,51.95-48.8,78.05
		c-16.38,26.34-48.14,46.52-80.24,40.78c-2.13-0.38-4.19-0.74-6.2-1.08c-1.17-0.19-1.16-0.28,0.02-0.25
		c19.32,0.51,37.95-5.12,54.71-15.02c15.45-9.12,27.07-21.9,34.87-38.34c6.88-14.5,12.33-29.58,20.19-43.59
		c10.69-19.06,28.36-35.4,49.41-42.32c13.84-4.56,28.3-6.85,42.72-5.82c37.09,2.64,69.87,26.2,87.91,58.2
		c3.05,5.4,5.24,10.77,6.57,16.1c0.45,1.81,0.71,1.78,0.78-0.09c0.49-14.02-1.77-26.68-9.51-39.66
		c-5.61-9.4-12.43-17.83-20.44-25.28c-15.51-14.41-34.24-27.03-54.42-33.82c-0.11-0.04-0.15-0.11-0.12-0.22v-0.01
		c0.03-0.11,0.11-0.15,0.22-0.13c34.9,7.9,64.55,24.05,86.91,52.33c8.41,10.63,15,23.07,16.41,36.76
		c1.23,12.08-3.71,25.64-14.47,32.11c-0.13,0.08-0.16,0.19-0.09,0.32l0.13,0.28c0.02,0.03,0.04,0.04,0.07,0.03
		c6.72-2.65,11.48-4.7,14.29-6.15c15.83-8.23,22.03-22.64,20.1-40.06c-2.55-23-19.15-45.18-36.41-59.69
		C433.92-4.07,361.96-9.3,304.01,13.24c-49.78,19.36-93.81,63.89-96.47,120.15c-0.4,8.45,2.08,27.81-4.53,32.86
		c-12.46,9.54-34.59,10.62-43.84-4.38c-7.49-12.15-0.12-23.24,10.7-29.27c0.05-0.03,0.06-0.06,0.04-0.11l-0.12-0.23
		c-0.07-0.15-0.19-0.2-0.35-0.14c-5.76,2.19-10.55,5.67-14.37,10.46c-16.13,20.23-11.45,52.85,10.72,66.31
		c35.33,21.44,84.91-6.59,111.7-29.73c0.09-0.08,0.16-0.06,0.21,0.05c0.03,0.09,0.02,0.17-0.05,0.25
		c-23.15,29.59-57.42,57.86-97.34,57.09c-23.65-0.46-45.04-14.1-51.85-37.05c-4.73-15.92-3.73-35.03,6.48-48.34
		c0.05-0.05,0.04-0.1-0.01-0.15l-0.21-0.17c-0.11-0.09-0.27-0.08-0.36,0.03c-26.04,29.19-25.16,73.38,5.08,99.3
		c29.86,25.59,71.79,22.61,102.22-0.01c15.94-11.85,27.74-26.15,40.62-42.59c10.62-13.56,21.26-27.11,31.92-40.64
		c24.7-31.37,51.3-61.23,93.86-66.04c1.59-0.18,2.92-0.23,4.01-0.15c0.78,0.06,0.79,0.2,0.04,0.42
		c-23.93,6.92-44.39,25.47-59.65,44.55c-6.07,7.59-12.52,15.18-18.22,22.74c-11.37,15.06-22.75,30.11-34.14,45.16
		c-10.36,13.67-19.58,24.78-27.66,33.32c-14.61,15.45-32.23,30.61-52.78,37.48c-30.58,10.23-61.8-0.71-83.13-23.85
		c-0.29-0.31-0.82-0.13-0.85,0.29c-2.96,37.45,7.83,78.2,37.01,103.88c0.56,0.5,0.86,1.23,0.78,1.98
		c-3.27,31.83,15.58,60.4,41.34,77.33c19.35,12.72,39.74,18.82,62.36,22.82c0.33,0.06,0.51,0.26,0.55,0.59
		c2.04,15.47,2.93,31,2.67,46.61c-0.44,27.06-9.82,53.45-30.38,71.65c-3.6,3.19-8.81,6.51-13.15,10.09
		c-0.4,0.33-0.46,0.93-0.12,1.33c40.36,48.22,73.7,98.46,106.15,156.02c10.16,18.03,20.24,36.35,30.24,54.96
		c0.24,0.44,0.88,0.44,1.11,0c10.49-19.82,21.26-39.59,32.31-59.31C434.66,698.65,466.63,651.11,502.47,606.17z M543,177.99
		c12.81,16.87,25.4,34.1,37.77,51.67c11.43,16.25,17.72,34.34,18.85,54.27c0.07,1.2,0.08,1.94,0.05,2.23
		c-0.23,1.89-0.47,1.89-0.72,0c-1.47-10.87-8.57-23.57-14.77-32.5c-5.61-8.08-11.11-16.24-16.5-24.47
		c-6.77-10.34-12.54-21.22-17.31-32.63c-2.71-6.49-5.32-12.59-7.83-18.3C541.93,176.87,542.08,176.78,543,177.99z M273.75,270.67
		c9.05-7.77,17.09-17.87,24.79-26.93c0.3-0.35,0.79-0.5,1.24-0.37c19.59,5.78,30.5,13.96,40.51,31.84c0.09,0.16-0.02,0.36-0.2,0.37
		c-14.91,1.21-29.75,1.48-44.52,0.81c-7.49-0.34-14.69-1.84-21.61-4.5C273.45,271.7,273.34,271.03,273.75,270.67z M216.05,398.75
		c-15.64-0.25-27.75-12.48-28.37-28.01c-0.41-10.18,3.6-18.52,12.05-25.02c3.99-3.07,8.56-5.39,13.73-6.94
		c0.21-0.07,0.44,0.05,0.52,0.26l0.09,0.24c0.04,0.1,0.01,0.17-0.1,0.21c-14.64,5.25-22.91,18.94-18.35,34.33
		c0.19,0.64,0.48,1.13,0.87,1.47c0.25,0.22,0.65,0.03,0.63-0.3c-1.14-21.51,27-29.84,39.5-13.41
		C249.23,378.15,235.49,399.06,216.05,398.75z M374.32,781.36c-0.2,0.49-0.42,0.5-0.66,0.02c-9.92-19.61-16.4-32.27-19.44-37.98
		c-15.74-29.6-35.39-60.82-55.18-89.95c-0.12-0.18,0.01-0.42,0.23-0.42c9.98-0.19,19.89-1.15,29.74-2.88
		c0.97-0.17,1.11-0.6,0.42-1.31c-4.55-4.69-9.08-9.13-13.57-13.33c-1-0.93-1.37-2.25-1.12-3.96c4.65-31.2,17.67-61.13,34.98-88.07
		c15.96-24.84,35.67-41.18,61.42-54.37c15.25-7.81,29.98-15.58,43.3-26.51c2.56-2.1,4.53-4.57,6.47-7.15
		c0.05-0.06,0.14-0.08,0.2-0.04c0.07,0.04,0.1,0.13,0.06,0.2c-1.63,3.27-2.74,6.83-3.33,10.67c-3.25,21.35-3.83,42.36-1.74,63.03
		c2.66,26.15,14.45,53.17,34.82,70.26c0.28,0.23,0.3,0.49,0.05,0.76c-47.11,52.37-84.54,112.76-114.77,176.19
		C375.59,777.8,374.98,779.71,374.32,781.36z"/>
	<path class="st1" d="M452.32,211.4c-15.75,1.07-52.52,6.53-55.34,27.4c-0.76,5.69,6.06,5.3,9.39,3.8
		c14.62-6.6,31.42-10.83,47.21-13.44c15.75-2.61,30.98-1.65,45.51,5.38c0.16,0.07,0.33-0.06,0.3-0.23
		c-0.02-0.11-0.09-0.23-0.22-0.35C486.5,221.79,470.99,210.13,452.32,211.4z"/>
	<path class="st1" d="M459.77,295.67c2.16-0.57,4.14-0.89,6.08-1.83c13.39-6.52,25.26-13.19,36.14-23.26
		c0.52-0.47,0.44-0.63-0.25-0.47c-1.49,0.35-3.43,1.28-4.43,1.53c-4.95,1.25-9.99,1.51-15.14,0.8c-0.33-0.05-0.55-0.23-0.64-0.56
		c-0.68-2.24,3.13-3.95,4.36-5.49c0.19-0.24-0.06-0.59-0.35-0.48c-11.72,4.38-23.4,8.79-35.98,9.87
		c-4.76,0.41-11.68,0.61-20.75,0.58c-10.67-0.03-21.33,0.31-31.98,1c-1.03,0.07-1.06,0.58-0.11,1.55c0.16,0.17,0.36,0.31,0.58,0.4
		c12.02,5.19,23.4,12.87,35.92,16.54c11.16,3.27,22.62,3.76,34.38,1.47c0.17-0.03,0.22-0.13,0.13-0.28l-0.12-0.23
		c-0.03-0.05-0.07-0.07-0.12-0.08l-7.66-0.45c-0.15-0.01-0.28-0.13-0.29-0.28C459.52,295.85,459.62,295.71,459.77,295.67z"/>
	<path class="st1" d="M378.72,351.68c4.91-2.6,10.72-0.39,13.8,4.25c1.03,1.55,1.51,1.4,1.42-0.46c-0.23-5.37-2.65-12.48-8.34-14.49
		c-2.26-0.8-4.41-0.63-6.44,0.51c-0.96,0.54-1.57,1.54-1.61,2.63l-0.28,6.65C377.22,351.92,377.71,352.22,378.72,351.68z"/>
	<path class="st2" d="M419.68,399.05c0.32-0.07,0.44-0.47,0.2-0.7c-1.56-1.47-3.54-2.74-4.95-4.22c-4.77-4.96-9.62-9.85-14.53-14.66
		c-5.26-5.15-11.94-10.92-19.35-7.14c-3.04,1.54-6.1,3.13-9.19,4.76c-0.91,0.48-1.99,0.48-2.89,0c-6.35-3.31-12.81-8.63-20.19-4.33
		c-8.82,5.13-16.16,14.02-24.58,22.62c-0.91,0.94-2.1,1.4-3.02,2.08c-1.25,0.91-1.1,1.47,0.43,1.68c3.36,0.44,6.05,2.14,8.06,5.09
		c6.82,10.01,12.08,18.9,24.38,23.61c5.93,2.27,12.93,3.12,21.01,2.57c12.57-0.87,23.4-5.33,29.65-16.71
		c0.3-0.55,0.18-0.69-0.35-0.44c-0.16,0.07-0.36,0.22-0.6,0.45c-5.99,5.66-13.03,7.58-21.14,5.77c-1.14-0.25-1.97-1.08-2.49-2.47
		c-0.12-0.31-0.08-0.61,0.11-0.88C387.82,405.55,408.12,401.59,419.68,399.05z M349.15,401.84c-1.69-2.03-0.91-3.38,0.99-4.66
		c3.17-2.16,4.67-2.98,8.72-2.37c4.51,0.68,10.56,3.18,14.46,1.96c5.56-1.74,12.27-3.99,17.37,0.12c2.47,1.99,2.64,4.17,0.5,6.54
		C382.32,413.25,357.43,411.82,349.15,401.84z"/>
	<path class="st1" d="M692.05,658.39c-1.27-0.93-2.78-1.87-4.52-2.81c-23.17-12.46-47.62-22.71-72.19-32.05
		c-20.07-7.63-40.29-14.88-60.64-21.73c-2.26-0.76-8.01-3.27-10.06-1.41c-45.97,41.47-83.85,90.1-114.62,144.62
		c-13.65,24.18-25.75,46.34-35.94,69.63c-2.53,5.77-5.07,11.54-7.62,17.31c-0.09,0.2,0.13,0.41,0.33,0.3l0.31-0.16
		c0.08-0.04,0.15-0.09,0.2-0.16c1.85-2.36,3.4-4.18,4.67-5.46c16.33-16.53,30.98-30.22,43.94-41.06
		c27.71-23.16,47.62-39.43,73.52-56.71c32.89-21.95,67.96-39.56,105.22-52.85c24.31-8.68,51.28-15.56,77.16-16.66
		C692.64,659.15,692.72,658.88,692.05,658.39z"/>
	<path class="st1" d="M352.61,814.64c-10.19-23.29-22.29-45.45-35.94-69.63c-30.77-54.52-68.65-103.15-114.62-144.62
		c-2.05-1.86-7.8,0.65-10.06,1.41c-20.35,6.85-40.57,14.1-60.64,21.73c-24.57,9.34-49.02,19.59-72.19,32.05
		c-1.74,0.94-3.25,1.88-4.52,2.81c-0.67,0.49-0.59,0.76,0.24,0.8c25.88,1.1,52.85,7.98,77.16,16.66
		c37.26,13.29,72.33,30.9,105.22,52.85c25.9,17.28,45.81,33.55,73.52,56.71c12.96,10.84,27.61,24.53,43.94,41.06
		c1.27,1.28,2.82,3.1,4.67,5.46c0.05,0.07,0.12,0.12,0.2,0.16l0.31,0.16c0.2,0.11,0.42-0.1,0.33-0.3
		C357.68,826.18,355.14,820.41,352.61,814.64z"/>
</g>
</svg>
