<?xml version="1.0" standalone="no"?>
<!DOCTYPE svg PUBLIC "-//W3C//DTD SVG 20010904//EN"
 "http://www.w3.org/TR/2001/REC-SVG-20010904/DTD/svg10.dtd">
<svg version="1.0" xmlns="http://www.w3.org/2000/svg"
 width="294.000000pt" height="298.000000pt" viewBox="0 0 294.000000 298.000000"
 preserveAspectRatio="xMidYMid meet">

<g transform="translate(0.000000,298.000000) scale(0.100000,-0.100000)"
fill="#000000" stroke="none">
<path d="M1125 2790 c-353 -32 -652 -267 -755 -595 -31 -100 -38 -276 -16
-379 57 -256 222 -459 466 -575 163 -77 261 -91 665 -91 256 0 294 -2 325 -18
79 -39 107 -148 54 -212 -53 -62 -44 -61 -504 -62 l-420 0 -40 36 c-34 31 -47
36 -88 36 -74 0 -126 -45 -137 -116 -14 -85 49 -154 139 -154 40 0 52 5 90 40
l43 39 434 3 c433 3 434 3 479 26 99 52 150 133 150 237 -1 109 -51 187 -155
236 l-60 29 -310 0 c-342 1 -418 7 -532 45 -116 39 -207 97 -298 189 -131 134
-195 285 -195 463 0 323 219 593 555 685 77 21 99 22 664 25 l584 4 -6 -28
c-40 -200 -213 -363 -425 -403 -30 -5 -194 -10 -362 -10 -350 0 -368 -3 -449
-76 -54 -48 -91 -126 -91 -188 0 -94 61 -193 146 -236 49 -25 50 -25 414 -31
326 -5 373 -8 440 -27 155 -42 270 -111 373 -222 215 -233 244 -570 70 -826
-100 -147 -234 -243 -420 -301 l-88 -28 -490 0 -490 0 -70 25 c-67 24 -70 27
-76 62 -13 81 -69 123 -153 115 -43 -4 -55 -10 -83 -42 -28 -33 -33 -46 -33
-92 0 -46 4 -58 33 -89 28 -31 42 -37 84 -41 28 -3 59 0 71 6 17 9 29 8 59 -7
101 -51 141 -55 593 -60 446 -4 547 2 681 39 219 61 428 229 527 424 141 281
111 592 -83 845 -117 152 -307 269 -515 317 -50 12 -146 16 -407 18 -310 2
-344 4 -379 21 -48 24 -74 60 -81 111 -7 53 25 113 76 141 34 19 57 21 381 24
325 4 349 6 415 27 265 86 434 291 461 560 5 57 4 75 -7 82 -16 10 -1137 9
-1254 -1z"/>
</g>
</svg>
