<svg id="Layer" height="512" viewBox="0 0 24 24" width="512" xmlns="http://www.w3.org/2000/svg"><path id="shopping-cart-check" d="m9.021 22.25a1.25 1.25 0 0 1 -.01-2.5h.01a1.25 1.25 0 0 1 0 2.5zm9.25-1.25a1.25 1.25 0 0 0 -1.25-1.25h-.01a1.25 1.25 0 1 0 1.26 1.25zm2.689-12.64-1.01 6.18a2.579 2.579 0 0 1 -2.95 2.46h-8.27a1.994 1.994 0 0 1 -1.98-1.72l-1.501-10.448a1.243 1.243 0 0 0 -1.239-1.082h-.26a.75.75 0 0 1 0-1.5h.26a2.729 2.729 0 0 1 2.722 2.364l.209 1.386h12.059a2 2 0 0 1 1.96 2.36zm-5.453 1.276a.75.75 0 0 0 -1.061 0l-2.136 2.136-.8-.8a.75.75 0 0 0 -1.061 1.06l1.333 1.334a.752.752 0 0 0 1.061 0l2.664-2.666a.75.75 0 0 0 0-1.064z" fill="rgb(0,0,0)"/></svg>